<?xml version="1.0" encoding="UTF-8" standalone="no"?>
<!-- Created with Inkscape (http://www.inkscape.org/) -->

<svg
   xmlns:dc="http://purl.org/dc/elements/1.1/"
   xmlns:cc="http://creativecommons.org/ns#"
   xmlns:rdf="http://www.w3.org/1999/02/22-rdf-syntax-ns#"
   xmlns:svg="http://www.w3.org/2000/svg"
   xmlns="http://www.w3.org/2000/svg"
   xmlns:sodipodi="http://sodipodi.sourceforge.net/DTD/sodipodi-0.dtd"
   xmlns:inkscape="http://www.inkscape.org/namespaces/inkscape"
   width="45"
   height="60"
   viewBox="0 0 45 60.000001"
   id="svg2"
   version="1.1"
   inkscape:version="0.91 r13725"
   sodipodi:docname="Ellipsoid.svg">
  <defs
     id="defs4">
    <marker
       inkscape:stockid="Arrow2Mend"
       orient="auto"
       refY="0.0"
       refX="0.0"
       id="Arrow2Mend"
       style="overflow:visible;"
       inkscape:isstock="true">
      <path
         id="path8643"
         style="fill-rule:evenodd;stroke-width:0.625;stroke-linejoin:round;stroke:#ff0000;stroke-opacity:1;fill:#ff0000;fill-opacity:1"
         d="M 8.7185878,4.0337352 L -2.2072895,0.016013256 L 8.7185884,-4.0017078 C 6.9730900,-1.6296469 6.9831476,1.6157441 8.7185878,4.0337352 z "
         transform="scale(0.6) rotate(180) translate(0,0)" />
    </marker>
    <marker
       inkscape:stockid="Arrow1Mend"
       orient="auto"
       refY="0.0"
       refX="0.0"
       id="Arrow1Mend"
       style="overflow:visible;"
       inkscape:isstock="true">
      <path
         id="path8625"
         d="M 0.0,0.0 L 5.0,-5.0 L -12.5,0.0 L 5.0,5.0 L 0.0,0.0 z "
         style="fill-rule:evenodd;stroke:#ff0000;stroke-width:1pt;stroke-opacity:1;fill:#ff0000;fill-opacity:1"
         transform="scale(0.4) rotate(180) translate(10,0)" />
    </marker>
    <marker
       inkscape:stockid="Arrow1Lend"
       orient="auto"
       refY="0.0"
       refX="0.0"
       id="marker8892"
       style="overflow:visible;"
       inkscape:isstock="true">
      <path
         id="path8894"
         d="M 0.0,0.0 L 5.0,-5.0 L -12.5,0.0 L 5.0,5.0 L 0.0,0.0 z "
         style="fill-rule:evenodd;stroke:#ff0000;stroke-width:1pt;stroke-opacity:1;fill:#ff0000;fill-opacity:1"
         transform="scale(0.8) rotate(180) translate(12.5,0)" />
    </marker>
    <marker
       inkscape:stockid="Arrow1Lend"
       orient="auto"
       refY="0.0"
       refX="0.0"
       id="Arrow1Lend"
       style="overflow:visible;"
       inkscape:isstock="true">
      <path
         id="path8619"
         d="M 0.0,0.0 L 5.0,-5.0 L -12.5,0.0 L 5.0,5.0 L 0.0,0.0 z "
         style="fill-rule:evenodd;stroke:#ff0000;stroke-width:1pt;stroke-opacity:1;fill:#ff0000;fill-opacity:1"
         transform="scale(0.8) rotate(180) translate(12.5,0)" />
    </marker>
    <inkscape:perspective
       sodipodi:type="inkscape:persp3d"
       inkscape:vp_x="0 : 30 : 1"
       inkscape:vp_y="0 : 1000 : 0"
       inkscape:vp_z="45 : 30 : 1"
       inkscape:persp3d-origin="22.5 : 20 : 1"
       id="perspective4208" />
    <marker
       inkscape:stockid="Arrow2Mend"
       orient="auto"
       refY="0"
       refX="0"
       id="Arrow2Mend-5"
       style="overflow:visible"
       inkscape:isstock="true">
      <path
         inkscape:connector-curvature="0"
         id="path8643-4"
         style="fill:#ff0000;fill-opacity:1;fill-rule:evenodd;stroke:#ff0000;stroke-width:0.625;stroke-linejoin:round;stroke-opacity:1"
         d="M 8.7185878,4.0337352 -2.2072895,0.01601326 8.7185884,-4.0017078 c -1.7454984,2.3720609 -1.7354408,5.6174519 -6e-7,8.035443 z"
         transform="scale(-0.6,-0.6)" />
    </marker>
  </defs>
  <sodipodi:namedview
     id="base"
     pagecolor="#ffffff"
     bordercolor="#666666"
     borderopacity="1.0"
     inkscape:pageopacity="0.0"
     inkscape:pageshadow="2"
     inkscape:zoom="10.339103"
     inkscape:cx="-16.829523"
     inkscape:cy="16.920208"
     inkscape:document-units="px"
     inkscape:current-layer="layer1"
     showgrid="false"
     units="px"
     inkscape:window-width="1920"
     inkscape:window-height="1058"
     inkscape:window-x="1912"
     inkscape:window-y="-8"
     inkscape:window-maximized="1" />
  <metadata
     id="metadata7">
    <rdf:RDF>
      <cc:Work
         rdf:about="">
        <dc:format>image/svg+xml</dc:format>
        <dc:type
           rdf:resource="http://purl.org/dc/dcmitype/StillImage" />
        <dc:title />
      </cc:Work>
    </rdf:RDF>
  </metadata>
  <g
     inkscape:label="Ebene 1"
     inkscape:groupmode="layer"
     id="layer1"
     transform="translate(0,-992.36216)">
    <path
       style="fill:none;fill-rule:evenodd;stroke:#ff0000;stroke-width:2;stroke-linecap:round;stroke-linejoin:round;stroke-miterlimit:4;stroke-dasharray:2,4;stroke-dashoffset:3.25421977;stroke-opacity:1"
       d="m 21.789785,1011.2577 0.05495,28.3263"
       id="path4382-5"
       inkscape:connector-curvature="0"
       sodipodi:nodetypes="cc" />
    <path
       style="fill:none;fill-rule:evenodd;stroke:#ff0000;stroke-width:2;stroke-linecap:round;stroke-linejoin:miter;stroke-miterlimit:4;stroke-dasharray:2,4;stroke-dashoffset:17.4;stroke-opacity:1"
       d="m 3.1497667,1014.8185 39.3424903,12.6459"
       id="path4382"
       inkscape:connector-curvature="0"
       sodipodi:nodetypes="cc" />
    <g
       id="g4341"
       transform="translate(-0.0683915,-0.95060734)"
       style="fill:#000000;fill-opacity:1;stroke:#000000;stroke-width:0.5;stroke-linecap:round;stroke-linejoin:round;stroke-miterlimit:4;stroke-dasharray:none;stroke-opacity:1">
      <g
         id="g4391"
         transform="matrix(0.49142865,0,0,0.49142865,-182.25105,642.22641)"
         style="fill:#000000;fill-opacity:1;stroke:#000000;stroke-width:1.0174417;stroke-linecap:round;stroke-linejoin:round;stroke-miterlimit:4;stroke-dasharray:none;stroke-opacity:1" />
      <path
         style="fill:#000000;fill-opacity:1;fill-rule:evenodd;stroke:#000000;stroke-width:0.5;stroke-linecap:round;stroke-linejoin:round;stroke-miterlimit:4;stroke-dasharray:none;stroke-dashoffset:0;stroke-opacity:1;marker-end:url(#Arrow2Mend-5)"
         d="M 2.8149943,19.888321 2.5248333,1.5115214"
         id="path8610-8"
         inkscape:connector-curvature="0" />
      <path
         style="fill:#000000;fill-opacity:1;stroke:#000000;stroke-width:0.5;stroke-linecap:round;stroke-linejoin:round;stroke-miterlimit:4;stroke-dasharray:none;stroke-opacity:1"
         d="m 29.965316,1032.914 c -4.409017,-0.1492 -8.36951,-0.8715 -12.482409,-2.2764 -2.921221,-0.9977 -3.026033,-1.0414 -5.838531,-2.4306 -1.8879986,-0.9326 -2.7455226,-1.417 -3.1518196,-1.7804 -0.954139,-0.8532 -1.492534,-1.2383 -2.231519,-1.5964 -0.500516,-0.2424 -0.866364,-0.5215 -1.226904,-0.9359 -0.282549,-0.3248 -0.953742,-1.0665 -1.49154,-1.6484 -1.738344,-1.8805 -2.068968,-2.7679 -2.104831,-5.6495 -0.0098,-0.7902 0.02707,-0.9849 0.286936,-1.5142 0.545039,-1.1098 2.081988,-2.5354 3.151028,-2.9227 0.273998,-0.099 0.906257,-0.3632 1.405021,-0.5865 1.53785,-0.6886 2.630197,-0.9197 5.6010786,-1.1852 1.744178,-0.1558 1.823416,-0.1558 4.942527,0 3.383193,0.1741 6.004387,0.5984 9.328323,1.5098 2.339259,0.6414 5.259914,1.7306 7.028026,2.621 0.427366,0.2153 0.966715,0.4583 1.198557,0.5401 0.441724,0.1558 1.543071,0.843 3.449876,2.1528 0.624513,0.4289 1.29232,0.8454 1.48402,0.9255 0.191698,0.08 1.065288,0.8574 1.94131,1.7273 1.835925,1.823 2.507714,2.762 2.950746,4.1239 0.257444,0.7914 0.290164,1.0345 0.249267,1.8516 -0.0422,0.843 -0.101287,1.062 -0.570465,2.114 -0.45961,1.0305 -0.621259,1.2726 -1.326571,1.9856 -1.400244,1.4159 -3.241079,2.135 -6.66291,2.6027 -1.060645,0.1451 -2.195385,0.3123 -2.521647,0.3716 -0.32626,0.059 -0.710334,0.1003 -0.853498,0.09 -0.143162,-0.013 -1.292494,-0.053 -2.554071,-0.095 z m 0.608669,-1.1559 -0.227104,-0.4145 -1.070953,-0.072 c -1.320184,-0.089 -3.864561,-0.3593 -4.507884,-0.4795 l -0.477217,-0.089 0.401666,0.4113 c 0.658672,0.6746 0.77862,0.706 3.779202,0.9891 0.205372,0.019 0.813501,0.042 1.351398,0.053 l 0.977994,0.017 -0.227102,-0.4146 z m 3.140753,0.3048 c 1.323484,-0.1317 2.756629,-0.3816 3.564558,-0.6216 0.524187,-0.1558 0.574772,-0.1952 0.452185,-0.3522 -0.125839,-0.161 -0.218101,-0.1634 -1.044868,-0.027 -0.498763,0.082 -1.927039,0.1807 -3.173946,0.2191 -1.246907,0.039 -2.267104,0.1054 -2.267104,0.1494 0,0.044 0.169703,0.229 0.377118,0.4111 0.424719,0.373 0.493591,0.3802 2.092057,0.2213 z m -9.85116,-0.6103 c -0.427218,-0.8916 -0.36824,-0.8481 -1.408085,-1.0368 -0.534497,-0.096 -1.657426,-0.3339 -2.495394,-0.5265 -0.89671,-0.2061 -1.507808,-0.3021 -1.485246,-0.2336 0.08121,0.2468 0.969007,0.8158 1.525456,0.9776 0.543614,0.1581 3.615622,0.8771 3.812708,0.8924 0.0489,0 0.07165,-0.03 0.05056,-0.073 z m 15.890294,-0.8869 c 0.366737,-0.165 0.666795,-0.322 0.666795,-0.3487 0,-0.027 -0.361899,0.067 -0.804219,0.2067 -0.44232,0.1404 -0.874404,0.2554 -0.960186,0.2554 -0.163766,0 -0.206383,0.1273 -0.08367,0.25 0.09109,0.091 0.34262,0.014 1.181277,-0.3634 z m -9.534505,-1.2468 c 0.03848,-0.6896 0.08108,-1.3932 0.09466,-1.5639 l 0.02469,-0.3102 -1.920371,-0.3998 c -1.056203,-0.2199 -2.446719,-0.5222 -3.090035,-0.6716 -0.643316,-0.1496 -1.183081,-0.2584 -1.199478,-0.2421 -0.193959,0.194 -0.326093,2.7272 -0.180281,3.4562 0.06208,0.3105 0.09392,0.3266 0.88017,0.444 0.902506,0.1349 3.397727,0.4099 4.229748,0.4663 0.293389,0.019 0.658871,0.045 0.81218,0.055 l 0.278746,0.019 0.06997,-1.2535 z m 6.238854,0.9987 c 0.54918,-0.088 1.010805,-0.1744 1.02583,-0.1924 0.01502,-0.018 0.05883,-0.3943 0.09733,-0.8359 l 0.07001,-0.8031 -1.629275,-0.1828 c -0.896103,-0.1003 -2.347809,-0.3008 -3.226016,-0.4451 -0.878206,-0.1445 -1.607562,-0.2517 -1.62079,-0.2385 -0.01322,0.013 -0.07448,0.3349 -0.136122,0.7149 -0.130304,0.8031 -0.149688,2.0577 -0.03367,2.1791 0.126482,0.1325 4.348298,-0.019 5.452703,-0.1962 z m -18.981514,-0.7452 c -0.188801,-0.32 -0.333494,-0.3977 -1.30332,-0.6996 -0.60002,-0.1867 -1.494343,-0.4826 -1.987389,-0.6575 -0.971369,-0.3444 -1.019339,-0.2247 -0.108566,0.271 0.398781,0.2171 3.391188,1.4206 3.588577,1.4434 0.01273,0 -0.0725,-0.1594 -0.189304,-0.3573 z m 22.004938,0.082 c 0.803751,-0.2522 2.432643,-0.9376 2.432643,-1.0237 0,-0.019 -0.779333,-0.035 -1.73185,-0.033 l -1.731852,0 -0.07568,0.4267 c -0.119576,0.6742 -0.102508,0.9068 0.06655,0.9068 0.08499,0 0.553078,-0.1248 1.040199,-0.2778 z m -16.369966,-0.5447 c -0.08849,-0.6605 0.02169,-2.3528 0.193713,-2.976 0.05714,-0.2069 -0.03884,-0.2505 -1.253316,-0.5687 -0.723364,-0.1895 -1.961986,-0.53 -2.752494,-0.7568 -0.790506,-0.2266 -1.456733,-0.3927 -1.480501,-0.369 -0.226197,0.2262 -0.298548,2.5528 -0.108772,3.4978 l 0.12072,0.6011 0.594834,0.1729 c 0.507832,0.1476 2.62111,0.6356 4.284725,0.9893 0.264052,0.057 0.483893,0.1067 0.488536,0.1132 0.0046,0 -0.0347,-0.3106 -0.08743,-0.7042 z m -6.254614,-1.7666 c -0.07566,-0.7465 -0.0087,-2.4593 0.120708,-3.0908 0.01378,-0.067 -0.06625,-0.1418 -0.17782,-0.166 -0.111576,-0.024 -1.139244,-0.3517 -2.283717,-0.7277 -1.144472,-0.376 -2.109389,-0.6552 -2.144263,-0.6204 -0.130404,0.1302 -0.06372,3.0852 0.08085,3.5824 l 0.144251,0.4962 1.34937,0.4822 c 1.573239,0.5621 2.938177,1.0125 2.976617,0.9823 0.01482,-0.013 -0.01488,-0.4339 -0.06599,-0.9382 z m 25.366045,0.3893 c 0.362635,-0.074 0.226907,-0.1674 -1.16232,-0.7934 -1.879771,-0.8471 -1.680169,-0.8288 -1.96529,-0.1806 -0.471773,1.0724 -0.484417,1.0241 0.279438,1.0682 0.750262,0.044 2.454667,-0.013 2.848172,-0.094 z m -4.154564,-0.4942 c 0.07451,-0.2494 0.23002,-0.6393 0.345594,-0.8663 0.115576,-0.227 0.170234,-0.4486 0.121466,-0.4924 -0.09313,-0.084 -3.291363,-1.3558 -4.827515,-1.92 -0.70906,-0.2605 -0.918565,-0.301 -0.995268,-0.1926 -0.163693,0.2313 -0.889703,1.8088 -1.126379,2.4475 l -0.22355,0.6032 0.234722,0.057 c 0.844973,0.2046 5.02523,0.7846 5.792243,0.8036 l 0.54322,0.014 0.135462,-0.4533 z m -26.073752,0.1833 c -0.113904,-0.086 -0.257928,-0.155 -0.320061,-0.153 -0.06213,0 0.0071,0.072 0.153749,0.1563 0.345588,0.1976 0.429721,0.1959 0.166312,0 z m 30.553414,-0.8084 c -0.153946,-0.2877 -1.684336,-1.8925 -1.930161,-2.0241 -0.151428,-0.081 -0.250371,0 -0.530904,0.4016 -0.189636,0.2756 -0.300192,0.5177 -0.24568,0.538 0.05451,0.021 0.699227,0.3182 1.432701,0.662 0.733476,0.3438 1.347283,0.6301 1.364016,0.6363 0.01673,0 -0.02376,-0.09 -0.08997,-0.2138 z m -11.635194,-0.8081 c 0.175914,-0.4771 0.490734,-1.2068 0.699601,-1.6215 0.208867,-0.4148 0.379759,-0.7752 0.379759,-0.8008 0,-0.06 -1.16374,-0.4987 -3.719978,-1.4 l -2.066325,-0.7285 -0.197594,0.2581 c -0.495115,0.6468 -1.815195,3.6434 -1.669259,3.7893 0.09482,0.095 6.153389,1.4413 6.233415,1.3853 0.01132,-0.013 0.164467,-0.4047 0.340381,-0.8819 z m -19.400889,-0.3774 c -0.07705,-0.6202 -0.07844,-1.2294 -0.0044,-1.9434 0.109325,-1.0543 0.08933,-1.2321 -0.138949,-1.2357 -0.06989,0 -0.844588,-0.2878 -1.7215636,-0.6371 -0.876976,-0.3492 -1.621121,-0.6083 -1.653653,-0.5757 -0.03253,0.032 -0.05861,0.6434 -0.05794,1.3572 9.59e-4,0.9802 0.04913,1.4363 0.197056,1.8633 l 0.195849,0.5655 1.611341,0.7911 c 0.8862366,0.4353 1.6278076,0.7748 1.6479336,0.7546 0.02013,-0.02 -0.01392,-0.4431 -0.07567,-0.9398 z m 31.199673,-0.1632 c -0.205924,-0.4976 -1.087669,-1.8404 -1.208574,-1.8404 -0.04912,0 -0.17523,0.095 -0.280252,0.2111 -0.186257,0.2058 -0.168969,0.233 0.703604,1.1103 0.492005,0.4947 0.9072,0.9038 0.922657,0.9092 0.01546,0 -0.04639,-0.1701 -0.137435,-0.3902 z m -3.314618,-0.6508 c 0.21085,-0.3139 0.383363,-0.6073 0.383363,-0.6518 0,-0.1196 -2.335885,-1.6889 -3.665969,-2.4619 -0.903924,-0.5254 -1.197262,-0.6495 -1.333591,-0.5646 -0.09613,0.06 -0.497164,0.5326 -0.8912,1.0503 l -0.716429,0.9413 2.423425,0.9253 c 1.332884,0.5089 2.639467,1.0217 2.903517,1.1398 0.264051,0.1183 0.487614,0.2095 0.496806,0.2033 0.0093,0 0.189227,-0.2677 0.400078,-0.5817 z m -15.577614,-0.363 c 0.169856,-0.4839 0.584535,-1.4169 0.921512,-2.0733 l 0.612683,-1.1934 -1.188229,-0.4205 c -1.686697,-0.5967 -3.875029,-1.3005 -4.037572,-1.2983 -0.255949,0 -1.475607,2.3032 -1.967311,3.7095 -0.160234,0.4583 -0.170821,0.5805 -0.05643,0.6512 0.07745,0.048 0.941524,0.3075 1.920167,0.5769 0.978645,0.2694 2.115418,0.5848 2.526164,0.7007 0.410745,0.1157 0.794819,0.2144 0.853497,0.2189 0.05868,0 0.245661,-0.3878 0.415517,-0.8717 z m -16.6382626,-1.9089 -0.0063,-1.7226 -1.243185,-0.5979 -1.243185,-0.598 -0.06361,0.5336 c -0.08098,0.6791 0.08952,1.8634 0.341052,2.3687 0.131119,0.2635 0.501826,0.6103 1.138372,1.0647 0.519165,0.3707 0.975253,0.674 1.013529,0.674 0.03828,0 0.06676,-0.7752 0.06331,-1.7225 z m 35.5365136,1.089 c -0.152729,-0.3013 -0.320085,-0.5218 -0.371901,-0.4898 -0.05182,0.032 0.05792,0.2908 0.243845,0.5752 0.18593,0.2844 0.353286,0.5047 0.371901,0.4898 0.01861,-0.015 -0.09111,-0.2738 -0.243845,-0.5752 z m -24.549827,-2.4985 c 0.202915,-0.4192 0.536031,-1.0376 0.74026,-1.3744 l 0.371323,-0.6122 -1.885189,-0.5945 c -1.036856,-0.327 -2.02438,-0.6395 -2.194501,-0.6947 -0.170121,-0.055 -0.363115,-0.1003 -0.428876,-0.1003 -0.303148,0 -1.867758,2.9945 -2.1262,4.0692 l -0.06777,0.2818 2.212886,0.7147 c 1.217086,0.3932 2.260043,0.7262 2.317681,0.7401 0.05763,0.014 0.236793,-0.3558 0.39812,-0.8214 0.161328,-0.4654 0.459343,-1.1893 0.662259,-1.6084 z m 22.53919,2.1532 c 0.135808,-0.1274 0.246922,-0.2902 0.246922,-0.3613 0,-0.2028 -1.791527,-1.8562 -2.987611,-2.7573 l -1.084632,-0.817 -0.657731,0.4709 c -0.361752,0.2589 -0.657731,0.5063 -0.657731,0.5499 0,0.044 0.652816,0.4714 1.450705,0.9509 0.797888,0.4796 1.854092,1.1661 2.347119,1.5254 0.493028,0.3595 0.941331,0.6574 0.996226,0.662 0.05489,0 0.210926,-0.097 0.346733,-0.2235 z m -8.099908,-0.6621 c 0.06364,-0.1397 0.434443,-0.6488 0.824004,-1.1312 0.389563,-0.4826 0.693264,-0.891 0.674896,-0.9076 -0.09843,-0.089 -3.2343,-1.6211 -4.141165,-2.0231 l -1.058337,-0.4692 -0.830939,0.8792 c -0.802343,0.849 -1.494673,1.7397 -1.406897,1.81 0.04199,0.034 5.638122,2.057 5.759834,2.0826 0.03459,0.013 0.114959,-0.1016 0.178604,-0.2407 z m 8.940663,-0.797 c -0.471595,-0.6059 -1.941355,-2.0809 -2.602404,-2.6115 -0.33817,-0.2716 -1.085359,-0.4084 -1.085359,-0.1989 0,0.048 0.324063,0.3232 0.720139,0.613 0.396076,0.2898 1.271027,1.0615 1.944335,1.715 1.311213,1.2727 1.827751,1.5161 1.023289,0.4824 z m -29.554278,-0.4706 c 0.123691,-0.5705 0.824378,-2.1115 1.365083,-3.002 0.279056,-0.4597 0.48697,-0.8562 0.462029,-0.8812 -0.05555,-0.055 -3.629364,-1.1021 -3.65935,-1.0716 -0.2091796,0.2128 -1.2767176,2.0887 -1.5157296,2.6635 -0.593722,1.4279 -0.703575,1.2431 1.173595,1.9744 1.9356486,0.7541 1.9356586,0.7541 2.0276626,0.7026 0.0395,-0.022 0.105517,-0.1957 0.14671,-0.3857 z m -8.1133736,-0.9218 0,-1.2692 -0.640123,-0.4311 -0.640124,-0.4311 -0.03273,0.4788 c -0.04873,0.7131 0.238047,1.5393 0.788433,2.2715 0.269108,0.358 0.49722,0.6507 0.506915,0.6506 0.0097,-3e-4 0.01763,-0.5715 0.01763,-1.2695 z m 22.3150946,-0.4636 c 0.224971,-0.308 0.733943,-0.93 1.131048,-1.3822 0.697444,-0.7941 0.714178,-0.8264 0.491781,-0.9454 -0.657706,-0.352 -4.441597,-1.7007 -4.636725,-1.6526 -0.334589,0.082 -2.757926,2.6592 -2.59285,2.7571 0.02285,0.014 1.193771,0.415 2.602043,0.8922 1.408272,0.477 2.568407,0.8728 2.57808,0.8792 0.0096,0.013 0.201652,-0.2403 0.426623,-0.5483 z m -18.4777196,-0.6668 c 0.309308,-0.8236 0.959455,-2.1157 1.353581,-2.6901 l 0.308562,-0.4497 -0.562669,-0.1589 c -0.309469,-0.087 -0.935828,-0.2526 -1.391909,-0.367 l -0.829238,-0.2078 -0.253776,0.3364 c -0.559817,0.7423 -1.448397,2.5464 -1.448397,2.9409 0,0.138 2.233209,1.2908 2.438612,1.2589 0.07967,-0.013 0.253015,-0.3106 0.385234,-0.6627 z m 27.4994246,0.2934 c 0.2551,-0.22 0.573539,-0.4723 0.707639,-0.5605 0.238401,-0.1569 0.215796,-0.1774 -1.017438,-0.9204 -0.693692,-0.418 -1.721929,-1.0061 -2.284969,-1.3069 l -1.023712,-0.5468 -0.510168,0.2712 c -0.80262,0.4268 -1.470841,0.9186 -1.372769,1.0103 0.04929,0.046 0.953932,0.4871 2.010314,0.9799 1.056382,0.493 2.136591,1.0256 2.400462,1.1838 0.263873,0.1581 0.512856,0.2879 0.553296,0.2885 0.04044,5e-4 0.282246,-0.179 0.537345,-0.3991 z m -14.948139,-1.8126 c 0.310795,-0.3955 0.894462,-1.0485 1.297037,-1.451 0.402575,-0.4026 0.71678,-0.7472 0.698232,-0.7657 -0.01855,-0.018 -0.936852,-0.3062 -2.040676,-0.6392 -1.350256,-0.4075 -2.096435,-0.5832 -2.280424,-0.537 -0.261738,0.066 -2.700639,2.4003 -2.700639,2.5851 0,0.049 0.996194,0.407 2.213762,0.7956 1.217568,0.3884 2.221379,0.7119 2.230694,0.7188 0.0093,0.013 0.271219,-0.3111 0.582014,-0.7066 z m 17.355317,0.4502 c 0.04638,-0.036 -1.833383,-1.2341 -2.804675,-1.7877 -0.813607,-0.4636 -1.086409,-0.5412 -1.813684,-0.5151 -0.269151,0.013 -0.124913,0.1183 0.906843,0.6867 0.674796,0.3713 1.634981,0.9397 2.133744,1.263 0.820563,0.5319 0.937293,0.5778 1.226904,0.4823 0.176033,-0.058 0.333924,-0.1157 0.350868,-0.1292 z m -33.1561976,-0.6768 c 0.13614,-0.3735 0.473466,-1.0551 0.749614,-1.5145 l 0.502088,-0.8353 -0.492992,-0.1042 c -1.31504,-0.278 -1.194236,-0.3075 -1.648006,0.4027 -0.372393,0.5827 -0.8187,1.5741 -0.8187,1.8184 0,0.1418 1.320749,1.0733 1.39703,0.9852 0.03489,-0.04 0.174827,-0.3788 0.310966,-0.7522 z m 25.6483346,-1.3874 0.524487,-0.3302 -0.801023,-0.365 c -1.348927,-0.6146 -3.267639,-1.3461 -3.524912,-1.3435 -0.315208,0 -0.972293,0.3038 -1.748689,0.8004 l -0.618315,0.3955 1.381704,0.5053 c 0.759937,0.278 1.837792,0.6949 2.395233,0.9267 l 1.01353,0.4213 0.426748,-0.3403 c 0.234713,-0.187 0.662768,-0.4887 0.951237,-0.6702 z m -15.359029,0.1952 c 0.173276,-0.2342 0.752924,-0.8553 1.288106,-1.38 l 0.973056,-0.9542 -1.341448,-0.3164 c -2.347636,-0.5537 -2.187057,-0.5641 -3.142121,0.2042 -0.746074,0.6001 -1.720008,1.6026 -1.720008,1.7702 0,0.06 3.260474,1.0725 3.520679,1.0935 0.05867,0 0.248459,-0.183 0.421736,-0.4173 z m -11.8621466,-1.2739 c 0.200259,-0.3286 0.204018,-0.3556 0.03,-0.2156 -0.21816,0.1755 -0.805681,1.3447 -0.80415,1.6003 5.23e-4,0.087 0.123415,-0.1029 0.273084,-0.4246 0.149669,-0.3215 0.37515,-0.7536 0.501068,-0.9601 z m 9.1999786,-2.0461 c -0.05868,-0.038 -0.667283,-0.1315 -1.352455,-0.2066 l -1.2457646,-0.1365 -0.445231,0.3085 c -0.538573,0.3733 -1.943551,1.6613 -1.880693,1.7242 0.0247,0.024 0.635329,0.1994 1.356961,0.3884 l 1.312055,0.3435 1.1809066,-1.1757 c 0.649499,-0.6465 1.132899,-1.2072 1.074221,-1.2458 z m 20.00386,2.2656 c 0.257719,-0.075 0.251027,-0.085 -0.198341,-0.3174 -1.051572,-0.544 -2.951506,-1.2098 -3.585447,-1.2563 l -0.643733,-0.048 1.226904,0.5235 c 0.674796,0.2879 1.538963,0.6707 1.920369,0.8505 0.733972,0.3461 0.855761,0.3697 1.280248,0.2471 z m -8.481295,-0.7107 c 0.293202,-0.2103 0.773141,-0.5065 1.066531,-0.6581 l 0.533436,-0.2758 -0.640124,-0.1991 c -0.352067,-0.1093 -1.228417,-0.3632 -1.947442,-0.5639 -1.483108,-0.414 -1.443284,-0.4182 -2.884334,0.3076 -0.752741,0.379 -0.956249,0.5906 -0.582601,0.6055 0.102688,0 0.978855,0.2628 1.947042,0.5748 0.968187,0.3119 1.808502,0.5726 1.867368,0.5793 0.05887,0.013 0.346921,-0.16 0.640124,-0.3703 z m -16.4151686,-1.0138 0.988455,-0.9694 -0.928481,0.076 c -1.004375,0.082 -1.113168,0.1331 -2.141719,1.0005 l -0.573115,0.4835 0.78649,0.1789 c 0.432568,0.099 0.80751,0.1837 0.833202,0.1893 0.02569,0 0.491518,-0.4258 1.035168,-0.9589 z m 11.5605576,-0.7377 c 0.488154,-0.2934 0.939903,-0.5348 1.003885,-0.5366 0.396847,-0.013 -0.409898,-0.2203 -1.633219,-0.4237 -1.215041,-0.2019 -1.495126,-0.2178 -1.867027,-0.1067 -0.742064,0.2213 -1.81527,0.7465 -1.7104,0.837 0.05461,0.048 0.627403,0.1981 1.272861,0.3353 0.645458,0.1374 1.269577,0.2868 1.386934,0.3324 0.416803,0.1613 0.669984,0.09 1.546966,-0.4375 z m 7.880348,0.2107 c -0.206098,-0.1107 -2.695512,-0.7461 -2.876248,-0.7342 -0.0824,0 0.474289,0.2126 1.237104,0.4602 0.762813,0.2477 1.476423,0.4283 1.5858,0.4013 0.152568,-0.037 0.164986,-0.067 0.05334,-0.1273 z m -13.256949,-0.7445 c 0.05892,-0.059 0.411847,-0.2699 0.784285,-0.4689 l 0.677162,-0.3618 -1.035028,-0.077 c -1.233424,-0.093 -1.481191,-0.059 -2.496702,0.336 l -0.777667,0.3026 1.027109,0.129 c 0.56491,0.071 1.107181,0.1501 1.205048,0.1761 0.319257,0.085 0.506751,0.073 0.615793,-0.035 z m -3.8455656,-0.5888 c 0.192161,-0.1507 0.176323,-0.1572 -0.219655,-0.09 -0.234711,0.04 -0.546772,0.1093 -0.693467,0.1532 -0.215031,0.066 -0.172465,0.082 0.219656,0.09 0.286455,0 0.571496,-0.058 0.693466,-0.1533 z"
         id="path4380"
         inkscape:connector-curvature="0"
         inkscape:transform-center-x="-114.51671"
         inkscape:transform-center-y="-0.77376153" />
    </g>
    <path
       style="fill:none;fill-rule:evenodd;stroke:#ff0000;stroke-width:2;stroke-linecap:round;stroke-linejoin:miter;stroke-miterlimit:4;stroke-dasharray:2,4;stroke-dashoffset:4.59231424;stroke-opacity:1"
       d="m 21.699159,1004.5695 0.06104,7.3281"
       id="path4382-5-2"
       inkscape:connector-curvature="0"
       sodipodi:nodetypes="cc" />
  </g>
</svg>
