<?xml version="1.0" encoding="UTF-8" standalone="no"?>
<!-- Created with Inkscape (http://www.inkscape.org/) -->

<svg
   xmlns:dc="http://purl.org/dc/elements/1.1/"
   xmlns:cc="http://creativecommons.org/ns#"
   xmlns:rdf="http://www.w3.org/1999/02/22-rdf-syntax-ns#"
   xmlns:svg="http://www.w3.org/2000/svg"
   xmlns="http://www.w3.org/2000/svg"
   xmlns:sodipodi="http://sodipodi.sourceforge.net/DTD/sodipodi-0.dtd"
   xmlns:inkscape="http://www.inkscape.org/namespaces/inkscape"
   width="45"
   height="60"
   viewBox="0 0 45 60.000001"
   id="svg2"
   version="1.1"
   inkscape:version="0.91 r13725"
   sodipodi:docname="open.svg">
  <defs
     id="defs4">
    <marker
       inkscape:stockid="Arrow2Mend"
       orient="auto"
       refY="0.0"
       refX="0.0"
       id="Arrow2Mend"
       style="overflow:visible;"
       inkscape:isstock="true">
      <path
         id="path8643"
         style="fill-rule:evenodd;stroke-width:0.625;stroke-linejoin:round;stroke:#ff0000;stroke-opacity:1;fill:#ff0000;fill-opacity:1"
         d="M 8.7185878,4.0337352 L -2.2072895,0.016013256 L 8.7185884,-4.0017078 C 6.9730900,-1.6296469 6.9831476,1.6157441 8.7185878,4.0337352 z "
         transform="scale(0.6) rotate(180) translate(0,0)" />
    </marker>
    <marker
       inkscape:stockid="Arrow1Mend"
       orient="auto"
       refY="0.0"
       refX="0.0"
       id="Arrow1Mend"
       style="overflow:visible;"
       inkscape:isstock="true">
      <path
         id="path8625"
         d="M 0.0,0.0 L 5.0,-5.0 L -12.5,0.0 L 5.0,5.0 L 0.0,0.0 z "
         style="fill-rule:evenodd;stroke:#ff0000;stroke-width:1pt;stroke-opacity:1;fill:#ff0000;fill-opacity:1"
         transform="scale(0.4) rotate(180) translate(10,0)" />
    </marker>
    <marker
       inkscape:stockid="Arrow1Lend"
       orient="auto"
       refY="0.0"
       refX="0.0"
       id="marker8892"
       style="overflow:visible;"
       inkscape:isstock="true">
      <path
         id="path8894"
         d="M 0.0,0.0 L 5.0,-5.0 L -12.5,0.0 L 5.0,5.0 L 0.0,0.0 z "
         style="fill-rule:evenodd;stroke:#ff0000;stroke-width:1pt;stroke-opacity:1;fill:#ff0000;fill-opacity:1"
         transform="scale(0.8) rotate(180) translate(12.5,0)" />
    </marker>
    <marker
       inkscape:stockid="Arrow1Lend"
       orient="auto"
       refY="0.0"
       refX="0.0"
       id="Arrow1Lend"
       style="overflow:visible;"
       inkscape:isstock="true">
      <path
         id="path8619"
         d="M 0.0,0.0 L 5.0,-5.0 L -12.5,0.0 L 5.0,5.0 L 0.0,0.0 z "
         style="fill-rule:evenodd;stroke:#ff0000;stroke-width:1pt;stroke-opacity:1;fill:#ff0000;fill-opacity:1"
         transform="scale(0.8) rotate(180) translate(12.5,0)" />
    </marker>
    <inkscape:perspective
       sodipodi:type="inkscape:persp3d"
       inkscape:vp_x="0 : 30 : 1"
       inkscape:vp_y="0 : 1000 : 0"
       inkscape:vp_z="45 : 30 : 1"
       inkscape:persp3d-origin="22.5 : 20 : 1"
       id="perspective4208" />
    <marker
       inkscape:stockid="Arrow2Mend"
       orient="auto"
       refY="0"
       refX="0"
       id="Arrow2Mend-5"
       style="overflow:visible"
       inkscape:isstock="true">
      <path
         inkscape:connector-curvature="0"
         id="path8643-4"
         style="fill:#ff0000;fill-opacity:1;fill-rule:evenodd;stroke:#ff0000;stroke-width:0.625;stroke-linejoin:round;stroke-opacity:1"
         d="M 8.7185878,4.0337352 -2.2072895,0.01601326 8.7185884,-4.0017078 c -1.7454984,2.3720609 -1.7354408,5.6174519 -6e-7,8.035443 z"
         transform="scale(-0.6,-0.6)" />
    </marker>
  </defs>
  <sodipodi:namedview
     id="base"
     pagecolor="#ffffff"
     bordercolor="#666666"
     borderopacity="1.0"
     inkscape:pageopacity="0.0"
     inkscape:pageshadow="2"
     inkscape:zoom="8"
     inkscape:cx="-14.199821"
     inkscape:cy="24.450223"
     inkscape:document-units="px"
     inkscape:current-layer="g4341"
     showgrid="false"
     units="px"
     inkscape:window-width="1846"
     inkscape:window-height="1058"
     inkscape:window-x="-8"
     inkscape:window-y="-8"
     inkscape:window-maximized="1" />
  <metadata
     id="metadata7">
    <rdf:RDF>
      <cc:Work
         rdf:about="">
        <dc:format>image/svg+xml</dc:format>
        <dc:type
           rdf:resource="http://purl.org/dc/dcmitype/StillImage" />
        <dc:title />
      </cc:Work>
    </rdf:RDF>
  </metadata>
  <g
     inkscape:label="Ebene 1"
     inkscape:groupmode="layer"
     id="layer1"
     transform="translate(0,-992.36216)">
    <g
       id="g4341">
      <g
         id="g4391"
         transform="matrix(0.49142865,0,0,0.49142865,-182.25105,642.22641)" />
      <path
         style="fill:none;fill-rule:evenodd;stroke:#ff0000;stroke-width:1;stroke-linecap:round;stroke-linejoin:round;stroke-miterlimit:4;stroke-dasharray:1, 2;stroke-dashoffset:0;stroke-opacity:1;marker-end:url(#Arrow2Mend-5)"
         d="M 2.8149943,19.888321 2.5248333,1.5115214"
         id="path8610-8"
         inkscape:connector-curvature="0" />
      <path
         style="color:#000000;clip-rule:nonzero;display:inline;overflow:visible;visibility:visible;opacity:1;isolation:auto;mix-blend-mode:normal;color-interpolation:sRGB;color-interpolation-filters:linearRGB;solid-color:#000000;solid-opacity:1;fill:#00c800;fill-opacity:1;fill-rule:evenodd;stroke:none;stroke-width:0.93297255;stroke-linecap:round;stroke-linejoin:round;stroke-miterlimit:4;stroke-dasharray:7.46378047, 3.73189028000000000;stroke-dashoffset:0;stroke-opacity:1;color-rendering:auto;image-rendering:auto;shape-rendering:auto;text-rendering:auto;enable-background:accumulate"
         d="m 26.823954,1025.4434 c -1.251648,-0.719 -2.275723,-1.3372 -2.275723,-1.3739 0,-0.037 0.387687,-0.2267 0.861526,-0.4223 0.473839,-0.1957 0.907936,-0.4425 0.964659,-0.5485 0.05672,-0.1059 0.102294,-0.6179 0.101271,-1.1376 -0.0056,-2.8399 -1.35416,-4.9514 -4.099023,-6.4179 l -0.62194,-0.3323 2.084952,-0.5581 c 1.146724,-0.3069 2.323633,-0.5863 2.615355,-0.6209 1.435406,-0.17 3.177842,1.217 4.196164,3.3401 0.385246,0.8032 1.071457,2.7812 1.236381,3.5638 0.08952,0.4249 0.381118,0.4605 1.035686,0.1265 0.23917,-0.122 0.448295,-0.2064 0.464722,-0.1875 0.07063,0.081 -4.075689,5.8758 -4.204314,5.8758 -0.0462,0 -1.108067,-0.5883 -2.359716,-1.3072 z"
         id="path4206"
         inkscape:connector-curvature="0" />
      <path
         style="color:#000000;clip-rule:nonzero;display:inline;overflow:visible;visibility:visible;opacity:1;isolation:auto;mix-blend-mode:normal;color-interpolation:sRGB;color-interpolation-filters:linearRGB;solid-color:#000000;solid-opacity:1;fill:#000000;fill-opacity:1;fill-rule:evenodd;stroke:none;stroke-width:0.93297255;stroke-linecap:round;stroke-linejoin:round;stroke-miterlimit:4;stroke-dasharray:7.46378047, 3.73189028;stroke-dashoffset:0;stroke-opacity:1;color-rendering:auto;image-rendering:auto;shape-rendering:auto;text-rendering:auto;enable-background:accumulate"
         d="m 5.5994733,1045.8509 c -1.0788592,-0.4031 -3.1196513,-2.2121 -3.5887058,-3.181 -0.3123297,-0.6452 -0.314169,-0.7515 -0.3075557,-17.7679 0.00723,-18.6041 -0.035623,-17.677 0.8698938,-18.8203 0.7315188,-0.9236 1.6538997,-1.3092 5.7172475,-2.39 2.0842449,-0.5544 5.5971459,-1.5197 7.8064449,-2.145 11.944694,-3.38112 12.470724,-3.49575 13.339171,-2.90683 0.773748,0.5247 1.440077,1.60723 1.651845,2.68363 0.106228,0.54 0.26106,0.9271 0.37079,0.9271 0.10362,0 0.774205,-0.1699 1.490185,-0.3774 3.456697,-1.0022 5.138515,-1.3257 6.561259,-1.2624 1.161206,0.052 1.494546,0.1288 2.184352,0.5054 0.967787,0.5284 1.450238,1.1145 1.706625,2.0731 0.164537,0.6152 0.146531,0.9068 -0.140213,2.2709 -0.496328,2.3612 -6.372767,24.441 -7.305849,27.4506 -0.37679,1.2153 -1.241469,2.3541 -2.405315,3.168 -0.96215,0.6727 -6.905249,3.0592 -18.134966,7.2822 -6.7695242,2.5457 -8.4947304,2.9833 -9.8152087,2.4899 z m 4.2031548,-3.1501 c 3.5285329,-1.1939 16.2703809,-6.0649 20.3545439,-7.7812 2.825685,-1.1875 2.891313,-1.2592 3.74985,-4.0959 1.209155,-3.9953 7.049139,-26.26 7.049139,-26.8746 0,-0.631 -0.616659,-0.8427 -2.166803,-0.7436 -1.162351,0.074 -2.736928,0.4586 -9.42918,2.3008 -15.31105,4.2149 -14.762234,4.0316 -15.32899,5.121 -0.222837,0.4284 -6.7605187,23.7893 -7.7306673,27.6239 -0.7104057,2.8079 -0.8279858,3.5761 -0.647422,4.2301 0.3299293,1.1949 1.1403647,1.2377 4.1495294,0.2195 z m -2.2078206,-20.0989 c 1.8513031,-6.4828 3.5229885,-12.128 3.7148565,-12.5449 0.415561,-0.9028 1.433712,-2.0867 2.223337,-2.5851 0.604258,-0.3815 3.786915,-1.3461 10.218662,-3.0971 5.477381,-1.4913 4.926818,-1.2567 4.924163,-2.0981 -0.0027,-0.8606 -0.275831,-1.4505 -0.699917,-1.5118 -0.413877,-0.06 -2.391783,0.4431 -12.439761,3.1624 -11.9449021,3.2327 -11.4967517,3.0618 -11.7280715,4.4714 -0.1524042,0.9287 -0.1825498,26.1982 -0.031434,26.3493 0.06024,0.06 0.1866186,0 0.2808421,-0.1248 0.094224,-0.1288 1.6860196,-5.5384 3.5373228,-12.0213 z"
         id="path4208"
         inkscape:connector-curvature="0" />
    </g>
  </g>
</svg>
