<?xml version="1.0" encoding="UTF-8" standalone="no"?>
<!-- Created with Inkscape (http://www.inkscape.org/) -->

<svg
   xmlns:dc="http://purl.org/dc/elements/1.1/"
   xmlns:cc="http://creativecommons.org/ns#"
   xmlns:rdf="http://www.w3.org/1999/02/22-rdf-syntax-ns#"
   xmlns:svg="http://www.w3.org/2000/svg"
   xmlns="http://www.w3.org/2000/svg"
   xmlns:sodipodi="http://sodipodi.sourceforge.net/DTD/sodipodi-0.dtd"
   xmlns:inkscape="http://www.inkscape.org/namespaces/inkscape"
   width="45"
   height="60"
   viewBox="0 0 45 60.000001"
   id="svg2"
   version="1.1"
   inkscape:version="0.91 r13725"
   sodipodi:docname="Torus.svg">
  <defs
     id="defs4">
    <inkscape:path-effect
       effect="powerstroke"
       id="path-effect4169"
       is_visible="true"
       offset_points="0,1 | 7,1"
       sort_points="true"
       interpolator_type="Linear"
       interpolator_beta="1"
       start_linecap_type="round"
       linejoin_type="spiro"
       miter_limit="10"
       end_linecap_type="round" />
    <inkscape:perspective
       sodipodi:type="inkscape:persp3d"
       inkscape:vp_x="0 : 30 : 1"
       inkscape:vp_y="0 : 1000 : 0"
       inkscape:vp_z="45 : 30 : 1"
       inkscape:persp3d-origin="22.5 : 20 : 1"
       id="perspective4208" />
  </defs>
  <sodipodi:namedview
     id="base"
     pagecolor="#ffffff"
     bordercolor="#666666"
     borderopacity="1.0"
     inkscape:pageopacity="0.0"
     inkscape:pageshadow="2"
     inkscape:zoom="5.6568543"
     inkscape:cx="8.6946387"
     inkscape:cy="23.655032"
     inkscape:document-units="px"
     inkscape:current-layer="g4341"
     showgrid="false"
     units="px"
     inkscape:window-width="1920"
     inkscape:window-height="1058"
     inkscape:window-x="1912"
     inkscape:window-y="-8"
     inkscape:window-maximized="1"
     showguides="true"
     inkscape:guide-bbox="true" />
  <metadata
     id="metadata7">
    <rdf:RDF>
      <cc:Work
         rdf:about="">
        <dc:format>image/svg+xml</dc:format>
        <dc:type
           rdf:resource="http://purl.org/dc/dcmitype/StillImage" />
        <dc:title />
      </cc:Work>
    </rdf:RDF>
  </metadata>
  <g
     inkscape:label="Ebene 1"
     inkscape:groupmode="layer"
     id="layer1"
     transform="translate(0,-992.36216)">
    <g
       id="g4341">
      <g
         id="g4391"
         transform="matrix(0.49142865,0,0,0.49142865,-182.25105,642.22641)" />
      <path
         style="fill:none;fill-rule:evenodd;stroke:#ff0000;stroke-width:2;stroke-linecap:round;stroke-linejoin:miter;stroke-miterlimit:4;stroke-dasharray:2,4;stroke-dashoffset:0;stroke-opacity:1"
         d="m 22.690144,1033.6633 0,9.6727"
         id="path4152-3"
         inkscape:connector-curvature="0" />
      <path
         style="fill:#000000;fill-opacity:1;stroke:#000000;stroke-width:2;stroke-linecap:butt;stroke-miterlimit:4;stroke-dasharray:none;stroke-dashoffset:0;stroke-opacity:1"
         d="m 20.135615,1031.5063 c -3.572434,-0.1756 -6.920139,-0.7684 -9.594369,-1.6989 -3.9897627,-1.3882 -6.7553709,-3.3791 -8.1622287,-5.876 -0.9901297,-1.7572 -1.245442,-3.9096 -0.6829897,-5.7578 0.5761837,-1.8933 2.1591794,-3.7341 4.3103286,-5.0124 2.8203648,-1.676 6.6623058,-2.8152 11.2764978,-3.3437 6.806377,-0.7797 14.004906,-0.2002 19.0042,1.6209 0.968789,0.353 2.615047,1.1602 3.386116,1.6602 2.27214,1.4739 3.636549,3.5014 3.979087,5.7198 0.249274,1.6145 -0.10865,3.4064 -0.973405,4.8737 -0.48235,0.8185 -0.786033,1.2022 -1.587369,2.0061 -1.385623,1.3899 -2.878221,2.3617 -5.107195,3.3247 -3.058322,1.3214 -6.783561,2.1532 -10.863544,2.4257 -1.27496,0.085 -3.826176,0.1147 -4.985129,0.057 z m 4.754603,-0.2889 c 3.850425,-0.2455 7.610548,-1.0587 10.633017,-2.2997 4.091901,-1.68 6.795733,-4.1783 7.660161,-7.0778 0.148402,-0.4977 0.32181,-1.5389 0.32181,-1.9322 0,-0.8708 -0.347113,-2.2353 -0.787531,-3.0958 -0.700873,-1.3694 -1.886004,-2.6008 -3.413589,-3.5468 -4.77409,-2.9566 -13.743344,-4.2297 -22.280581,-3.1623 -3.915435,0.4895 -7.7617504,1.5826 -10.1374398,2.8813 -1.337189,0.731 -2.0298846,1.2264 -2.9039556,2.0767 -1.9438916,1.8914 -2.7367647,4.4491 -2.1189334,6.8356 0.3835006,1.4815 1.0778087,2.6514 2.3084971,3.8901 1.5735111,1.5835 3.5618114,2.733 6.5349727,3.7776 2.781689,0.9774 6.318503,1.5791 10.206994,1.7365 0.717997,0.03 2.947299,-0.018 3.976578,-0.083 z m -4.552889,-9.7295 c -2.391287,-0.083 -5.121981,-0.4553 -6.953176,-0.9482 -1.751788,-0.4714 -3.23644,-1.1638 -3.6105631,-1.6838 -0.1079647,-0.1502 -0.3492494,-0.3629 -0.5362107,-0.5182 -0.3074128,-0.2555 -0.3561048,-0.4194 -0.3485454,-0.4379 0.00365,-0.01 0.020454,0.016 0.027527,0.082 0.073771,0.038 0.4847403,0.5387 0.7199978,0.7618 0.2352584,0.2232 0.2696571,0.091 0.2696571,0.057 0,-0.073 -0.3148334,-0.4026 -0.7204008,-0.7532 -0.158485,-0.137 -0.2035995,-0.1922 -0.1002155,-0.1225 0.103381,0.07 0.3626869,0.2948 0.57631,0.5004 0.2136331,0.2055 0.5388576,0.4775 0.7227296,0.6041 l 0.334318,0.2302 0.428711,-0.2668 c 2.661057,-1.6563 7.644491,-2.6643 12.561333,-2.5409 2.094421,0.053 3.605914,0.2102 5.359737,0.5593 1.976139,0.3934 3.899481,1.0707 5.010084,1.7646 l 0.284303,0.1777 0.32083,-0.2201 c 0.176464,-0.1211 0.502373,-0.4056 0.724258,-0.6323 0.221884,-0.2267 0.477176,-0.4656 0.567321,-0.5308 0.09011,-0.065 -0.06323,0.1052 -0.340757,0.3786 -0.27756,0.2734 -0.486704,0.515 -0.464773,0.537 0.02193,0.022 0.239368,-0.153 0.483203,-0.3888 l 0.321728,-0.4886 -0.280185,0.4998 c -0.220989,0.2418 -0.462127,0.5202 -0.535854,0.6188 -0.07377,0.098 -0.156715,0.1789 -0.18442,0.1789 -0.02771,0 -0.167823,0.079 -0.311398,0.176 -0.373499,0.2516 -1.553467,0.7752 -2.333325,1.0354 -1.619648,0.5402 -4.01007,1.0014 -6.401937,1.235 -0.899383,0.088 -3.642682,0.2114 -4.178282,0.1881 -0.158487,-0.011 -0.793875,-0.03 -1.41197,-0.052 z m 3.039457,-0.2241 c 4.094429,-0.1588 7.910374,-0.8842 10.214582,-1.9415 l 0.488652,-0.2243 -0.422819,-0.2466 c -1.161578,-0.6774 -3.419059,-1.3921 -5.539615,-1.7538 -4.666663,-0.7958 -10.014417,-0.4505 -14.033782,0.9063 -0.506884,0.1711 -1.056669,0.3653 -1.221742,0.4315 -0.385355,0.1549 -1.295183,0.611 -1.593428,0.799 l -0.230895,0.1455 0.159129,0.083 c 0.349588,0.1829 1.32117,0.5389 1.998501,0.7324 2.032456,0.5804 4.773732,0.9734 7.430109,1.065 0.681495,0.023 1.25205,0.047 1.267901,0.052 0.0158,0 0.683378,-0.017 1.483407,-0.048 z m -11.914721,-1.5532 c -0.04753,-0.03 -0.112381,-0.055 -0.14408,-0.055 -0.03172,0 -0.01876,0.025 0.02877,0.055 0.04753,0.03 0.112392,0.055 0.14408,0.055 0.03172,0 0.01876,-0.025 -0.02877,-0.055 z m -0.50428,-0.2108 c -0.03962,-0.016 -0.07208,-0.065 -0.07208,-0.1087 0,-0.047 -0.03521,-0.067 -0.0881,-0.046 -0.0762,0.029 -0.07419,0.044 0.01443,0.1114 0.05638,0.044 0.128484,0.077 0.160183,0.075 0.03173,0 0.02519,-0.016 -0.01443,-0.031 z m -0.302567,-0.1572 c 0,-0.012 -0.04026,-0.038 -0.08947,-0.057 -0.05133,-0.021 -0.0744,-0.011 -0.05428,0.021 0.03383,0.055 0.14367,0.081 0.14367,0.035 z m 23.650818,-0.2762 c -0.0156,-0.025 -0.08515,-0.073 -0.154756,-0.1068 -0.120505,-0.058 -0.121307,-0.057 -0.01707,0.027 0.09516,0.076 0.09885,0.1 0.02877,0.185 -0.07398,0.089 -0.07029,0.091 0.04532,0.019 0.06923,-0.044 0.113203,-0.099 0.09759,-0.1241 z m -24.082858,0.012 c -0.01949,-0.031 -0.09232,-0.085 -0.16189,-0.119 -0.1089467,-0.054 -0.1065014,-0.045 0.0176,0.056 0.161352,0.1318 0.196287,0.1471 0.14427,0.063 z m 1.181253,-0.063 c 0.09569,-0.078 0.105383,-0.098 0.02877,-0.057 -0.187983,0.097 -0.292197,0.1767 -0.230526,0.1764 0.03172,0 0.122466,-0.054 0.201704,-0.1182 z m 23.513671,-0.2625 c 0,-0.042 -0.222106,0.093 -0.263226,0.1587 -0.0215,0.035 0.02888,0.019 0.112054,-0.036 0.08315,-0.054 0.151172,-0.1098 0.151172,-0.1232 z m -0.922104,0.1258 c 0,-0.015 -0.05838,-0.055 -0.129664,-0.089 -0.12452,-0.061 -0.125227,-0.059 -0.01781,0.026 0.117577,0.094 0.147463,0.1068 0.147463,0.063 z m -0.403418,-0.2311 c 0,-0.035 -0.440777,-0.2611 -0.501984,-0.2575 -0.02508,0 0.07113,0.065 0.213823,0.1412 0.290553,0.1554 0.288161,0.1544 0.288161,0.1163 z m -26.5105122,9.4968 c 0,-0.015 -0.058382,-0.055 -0.1296743,-0.09 -0.124521,-0.06 -0.1252271,-0.059 -0.017809,0.026 0.1175869,0.094 0.1474735,0.1068 0.1474735,0.063 z m 30.6599832,-0.1212 c 0,-0.016 -0.05185,0 -0.115259,0.033 -0.06344,0.034 -0.115267,0.075 -0.115267,0.091 0,0.016 0.05185,0 0.115267,-0.032 0.06344,-0.034 0.115259,-0.075 0.115259,-0.091 z m -30.9481436,-0.051 c 0,-0.014 -0.058382,-0.055 -0.1296638,-0.089 -0.124521,-0.061 -0.125227,-0.059 -0.017809,0.026 0.1175868,0.094 0.1474735,0.1067 0.1474735,0.063 z m 31.5820876,-0.2937 c 0,-0.016 -0.05185,0 -0.115258,0.032 -0.06344,0.034 -0.115268,0.075 -0.115268,0.091 0,0.016 0.05185,0 0.115268,-0.033 0.06344,-0.034 0.115258,-0.074 0.115258,-0.091 z m -32.216032,-0.1043 c 0,-0.011 -0.071345,-0.065 -0.1584861,-0.1184 l -0.1584862,-0.097 0.1360501,0.1186 c 0.1327725,0.1157 0.1809222,0.1414 0.1809222,0.096 z m -0.3457947,-0.2328 c 0,-0.014 -0.084307,-0.08 -0.1872977,-0.1486 l -0.187298,-0.1238 0.1728919,0.1483 c 0.1773077,0.1522 0.2017038,0.1673 0.2017038,0.1241 z m 33.6568347,-0.4146 c 0,-0.016 -0.07778,0.026 -0.172904,0.095 -0.09506,0.067 -0.172891,0.1357 -0.172891,0.1516 0,0.016 0.07778,-0.026 0.172891,-0.095 0.09506,-0.067 0.172904,-0.1359 0.172904,-0.1517 z m -34.0602528,0.1298 c 0,-0.011 -0.097269,-0.091 -0.2161202,-0.1768 l -0.2161098,-0.1549 0.1995329,0.1768 c 0.1965401,0.1742 0.2326971,0.1983 0.2326971,0.1549 z m 34.2404998,-0.2514 c 0.07167,-0.092 0.06967,-0.094 -0.02172,-0.022 -0.05542,0.044 -0.02305,0.08 -0.02305,0.092 0,0.048 -0.03048,0.025 0.04483,-0.07 z m -34.7015521,-0.092 c 0,-0.011 -0.058382,-0.07 -0.1296743,-0.1295 l -0.1296638,-0.1096 0.1097885,0.1295 c 0.1031703,0.1217 0.1495496,0.1557 0.1495496,0.1096 z m 34.9320781,-0.081 c 0.07167,-0.091 0.06966,-0.094 -0.02172,-0.021 -0.05542,0.043 -0.100853,0.088 -0.100853,0.101 0,0.047 0.04732,0.017 0.122625,-0.079 z m 0.309616,-0.2445 c 0.05732,-0.063 0.09136,-0.1152 0.07545,-0.1152 -0.0158,0 -0.07576,0.051 -0.133131,0.1152 -0.05732,0.063 -0.09136,0.115 -0.07545,0.115 0.01581,0 0.07576,-0.051 0.13313,-0.115 z m -35.9909069,-0.3738 c -0.2361431,-0.2373 -0.4423153,-0.4317 -0.458165,-0.4317 -0.015807,0 0.1643982,0.1944 0.4005414,0.4317 0.2361431,0.2375 0.4423151,0.4316 0.4581648,0.4316 0.015808,0 -0.1643981,-0.1941 -0.4005412,-0.4316 z m 36.3078799,0.1151 c 0.0745,-0.079 0.122392,-0.1439 0.106543,-0.1439 -0.01581,0 -0.08967,0.065 -0.164177,0.1439 -0.0744,0.079 -0.122382,0.1439 -0.106532,0.1439 0.0158,0 0.08967,-0.065 0.164166,-0.1439 z m 0.749212,-0.7481 c 0.172165,-0.1741 0.300069,-0.3166 0.28422,-0.3166 -0.0158,0 -0.169678,0.1425 -0.341853,0.3166 -0.172166,0.1742 -0.300068,0.3166 -0.28422,0.3166 0.0158,0 0.16969,-0.1424 0.341853,-0.3166 z m -37.5757679,0.068 c 0,-0.011 -0.097269,-0.1067 -0.2161203,-0.2158 l -0.2161203,-0.1984 0.1986055,0.216 c 0.1848637,0.2008 0.2336351,0.2422 0.2336351,0.1982 z m -0.4034288,-0.4647 c 0,-0.012 -0.04542,-0.057 -0.1008519,-0.101 -0.091368,-0.071 -0.093475,-0.07 -0.021709,0.022 0.075244,0.096 0.1226135,0.1264 0.1226135,0.079 z m 38.4726877,-0.1652 0.169276,-0.1871 -0.187308,0.169 c -0.174589,0.1576 -0.213791,0.2051 -0.169267,0.2051 0.0095,0 0.09421,-0.084 0.187299,-0.187 z m -38.9117571,-0.446 c -0.083885,-0.1267 -0.1636077,-0.2303 -0.1771178,-0.2303 -0.029192,0 0.019285,0.087 0.168508,0.3021 0.1716906,0.2476 0.1791307,0.1854 0.00843,-0.071 z m 39.1748251,0.1294 c 0.07167,-0.091 0.06966,-0.094 -0.02172,-0.022 -0.05542,0.044 -0.100852,0.089 -0.100852,0.1011 0,0.047 0.04732,0.017 0.122614,-0.079 z m -39.4273342,-0.5323 c -0.033933,-0.063 -0.074612,-0.1151 -0.090524,-0.1151 -0.015808,0 -0.00105,0.051 0.03288,0.1151 0.033934,0.063 0.074612,0.1151 0.090524,0.1151 0.015807,0 0.00105,-0.051 -0.03288,-0.1151 z m -0.2129693,-0.3733 c -0.052692,-0.1104 -0.1060684,-0.1905 -0.1185774,-0.1781 -0.026346,0.026 0.14858,0.3787 0.1880145,0.3787 0.014543,0 -0.016756,-0.09 -0.069448,-0.2006 z m 40.2092685,0.028 c 0.03394,-0.063 0.04868,-0.1151 0.03288,-0.1151 -0.01581,0 -0.05659,0.052 -0.09053,0.1151 -0.03393,0.063 -0.04868,0.115 -0.03288,0.115 0.0158,0 0.05659,-0.051 0.09053,-0.115 z m 0.35294,-6.7488 c -0.0569,-0.057 -0.06355,-0.05 -0.03225,0.032 0.02161,0.057 0.05385,0.088 0.07156,0.071 0.0177,-0.018 4.2e-5,-0.064 -0.03931,-0.1031 z m -40.3492392,-0.2721 c 0.033934,-0.063 0.048687,-0.1151 0.03288,-0.1151 -0.015808,0 -0.056591,0.051 -0.090524,0.1151 -0.033934,0.063 -0.048687,0.1152 -0.03288,0.1152 0.015807,0 0.056591,-0.051 0.090524,-0.1152 z m 0.378221,-0.5566 c 0.088732,-0.1161 0.1319506,-0.1931 0.096004,-0.1709 -0.073768,0.045 -0.3232741,0.3823 -0.2832389,0.3823 0.014227,0 0.098534,-0.095 0.1872662,-0.2114 z m 0.2845457,-0.3641 c 0.057329,-0.064 0.091368,-0.1152 0.075455,-0.1152 -0.015807,0 -0.075771,0.052 -0.1331309,0.1152 -0.057329,0.063 -0.091368,0.1151 -0.075455,0.1151 0.015807,0 0.075771,-0.051 0.1331309,-0.1151 z m 38.9301145,-0.076 c 0,-0.011 -0.07135,-0.082 -0.158486,-0.1583 l -0.158487,-0.1396 0.139717,0.1584 c 0.130581,0.1479 0.177256,0.1846 0.177256,0.1395 z m -38.6383289,-0.2834 0.1692668,-0.1871 -0.1872979,0.169 c -0.103065,0.093 -0.1873084,0.1772 -0.1873084,0.1871 0,0.044 0.047529,0.011 0.2053395,-0.169 z m 38.3501679,-0.063 c 0,-0.011 -0.07135,-0.082 -0.158486,-0.1583 l -0.158486,-0.1395 0.139718,0.1583 c 0.13059,0.1479 0.177254,0.1845 0.177254,0.1395 z m -37.7774829,-0.4992 c 0.1561044,-0.1583 0.2708564,-0.2878 0.2550174,-0.2878 -0.015807,0 -0.1565471,0.1295 -0.3126411,0.2878 -0.1561044,0.1582 -0.2708669,0.2876 -0.2550172,0.2876 0.015807,0 0.1565365,-0.1294 0.3126409,-0.2876 z m 0.5186865,-0.4604 c 0.057329,-0.063 0.091368,-0.1151 0.075455,-0.1151 -0.015807,0 -0.075771,0.051 -0.1331309,0.1151 -0.057329,0.063 -0.091368,0.1151 -0.075455,0.1151 0.015807,0 0.075771,-0.051 0.1331309,-0.1151 z m 36.3943264,0.097 c -0.0042,-0.01 -0.0843,-0.094 -0.187298,-0.187 l -0.187309,-0.169 0.169267,0.187 c 0.171469,0.1847 0.232581,0.2343 0.20534,0.169 z m -36.1061659,-0.3273 c 0.057329,-0.063 0.091368,-0.1151 0.075455,-0.1151 -0.015808,0 -0.075771,0.051 -0.1331309,0.1151 -0.057329,0.063 -0.091368,0.1152 -0.075455,0.1152 0.015807,0 0.075771,-0.051 0.1331309,-0.1152 z m 35.7027479,-0.021 c 0,-0.011 -0.05838,-0.07 -0.129675,-0.1295 l -0.129675,-0.1097 0.109789,0.1296 c 0.103171,0.1216 0.149561,0.1556 0.149561,0.1096 z m -34.9247234,-0.5382 c 0,-0.039 -0.3340443,0.1696 -0.5051659,0.3148 -0.086731,0.074 -0.00843,0.038 0.1737878,-0.079 0.1822607,-0.1168 0.3313781,-0.2232 0.3313781,-0.2363 z m 34.6365624,0.308 c -0.106932,-0.059 -0.138839,-0.1714 -0.208259,-0.257 l -0.114176,0.085 c 0.103171,0.1218 0.322435,0.2186 0.322435,0.1725 z m -34.17551,-0.5878 c 0,-0.015 -0.051849,0 -0.1152683,0.033 -0.063441,0.034 -0.1152579,0.075 -0.1152579,0.091 0,0.015 0.051849,0 0.1152579,-0.033 0.063441,-0.034 0.1152683,-0.075 0.1152683,-0.091 z m 0.4034182,-0.2301 c 0,-0.015 -0.051849,0 -0.1152579,0.033 -0.063441,0.034 -0.1152684,0.075 -0.1152684,0.091 0,0.015 0.051849,0 0.1152684,-0.032 0.063441,-0.034 0.1152579,-0.075 0.1152579,-0.091 z m 32.7923528,0.1211 c 0,-0.014 0.06465,-0.064 -0.133592,-0.024 -0.124522,-0.06 -0.16452,-0.1188 -0.0571,-0.033 0.117587,0.094 0.190696,0.1008 0.190696,0.057 z m -0.209576,-0.3108 c 0,-0.014 0.0087,-0.055 -0.08644,-0.1047 -0.216743,-0.1119 -0.394889,0.063 -0.179462,0.18 0.181112,0.098 -0.268489,-0.2111 -0.268489,-0.2483 z m -31.833564,-0.2115 c 0,-0.016 -0.1036973,0.024 -0.2305262,0.088 -0.1267868,0.064 -0.2305262,0.1303 -0.2305262,0.1463 0,0.016 0.1036972,-0.024 0.2305262,-0.088 0.1267867,-0.064 0.2305262,-0.1304 0.2305262,-0.1462 z m 30.890509,-0.1113 c 0,-0.034 -0.325076,-0.2036 -0.386145,-0.2005 -0.02529,0 0.04468,0.053 0.155619,0.1127 0.227153,0.1242 0.478066,0.1942 0.478066,0.1561 z m -30.2613594,-0.182 c 0.079032,-0.07 -0.108503,0 -0.2003024,0.069 -0.1054888,0.084 -0.1035919,0.085 0.032247,0.022 0.079248,-0.038 0.154882,-0.078 0.1680972,-0.09 z"
         id="path4150"
         inkscape:connector-curvature="0"
         sodipodi:nodetypes="csccssccscccccccscsscccccccccccccsccscccccccssccccccccccscccccccccccccccccccccssssscscccccccccccccccccccccccccccccccccccccsccscccccccscsccccccccscccccccccscccsscscsscccsccsccscccsccscccscsccscsccscsccscscscccsccccccccsccscccccscccscscccscccscscccccccscscccscccscscscccscccscscccssscsscscscscccscscscscccscccccccccscscsscscssccccccccccscscsscccccccccc" />
      <path
         style="fill:none;fill-rule:evenodd;stroke:#ff0000;stroke-width:2;stroke-linecap:round;stroke-linejoin:miter;stroke-miterlimit:4;stroke-dasharray:2, 4;stroke-dashoffset:1;stroke-opacity:1"
         d="m 22.627644,1006.0858 0,13.2018"
         id="path4152"
         inkscape:connector-curvature="0" />
    </g>
  </g>
</svg>
